<svg width="22" height="22" viewBox="0 0 22 22" fill="none" xmlns="http://www.w3.org/2000/svg">
<path d="M19.25 11V17.4167C19.25 17.9029 19.0568 18.3692 18.713 18.713C18.3692 19.0568 17.9029 19.25 17.4167 19.25H4.58333C4.0971 19.25 3.63079 19.0568 3.28697 18.713C2.94315 18.3692 2.75 17.9029 2.75 17.4167V11H19.25ZM14.6667 2.75C14.9098 2.75 15.1429 2.84658 15.3148 3.01849C15.4868 3.19039 15.5833 3.42355 15.5833 3.66667V4.58333H17.4167C17.9029 4.58333 18.3692 4.77649 18.713 5.1203C19.0568 5.46412 19.25 5.93044 19.25 6.41667V9.16667H2.75V6.41667C2.75 5.93044 2.94315 5.46412 3.28697 5.1203C3.63079 4.77649 4.0971 4.58333 4.58333 4.58333H6.41667V3.66667C6.41667 3.42355 6.51324 3.19039 6.68515 3.01849C6.85706 2.84658 7.09022 2.75 7.33333 2.75C7.57645 2.75 7.80961 2.84658 7.98151 3.01849C8.15342 3.19039 8.25 3.42355 8.25 3.66667V4.58333H13.75V3.66667C13.75 3.42355 13.8466 3.19039 14.0185 3.01849C14.1904 2.84658 14.4236 2.75 14.6667 2.75Z" fill="#44AE83"/>
</svg>
