<svg width="18" height="18" viewBox="0 0 18 18" fill="none" xmlns="http://www.w3.org/2000/svg">
<path d="M17.25 9V15.4167C17.25 15.9029 17.0568 16.3692 16.713 16.713C16.3692 17.0568 15.9029 17.25 15.4167 17.25H2.58333C2.0971 17.25 1.63079 17.0568 1.28697 16.713C0.943154 16.3692 0.75 15.9029 0.75 15.4167V9H17.25ZM12.6667 0.75C12.9098 0.75 13.1429 0.846577 13.3148 1.01849C13.4868 1.19039 13.5833 1.42355 13.5833 1.66667V2.58333H15.4167C15.9029 2.58333 16.3692 2.77649 16.713 3.1203C17.0568 3.46412 17.25 3.93044 17.25 4.41667V7.16667H0.75V4.41667C0.75 3.93044 0.943154 3.46412 1.28697 3.1203C1.63079 2.77649 2.0971 2.58333 2.58333 2.58333H4.41667V1.66667C4.41667 1.42355 4.51324 1.19039 4.68515 1.01849C4.85706 0.846577 5.09022 0.75 5.33333 0.75C5.57645 0.75 5.80961 0.846577 5.98151 1.01849C6.15342 1.19039 6.25 1.42355 6.25 1.66667V2.58333H11.75V1.66667C11.75 1.42355 11.8466 1.19039 12.0185 1.01849C12.1904 0.846577 12.4236 0.75 12.6667 0.75Z" fill="white"/>
</svg>
