<svg width="22" height="19" viewBox="0 0 22 19" fill="none" xmlns="http://www.w3.org/2000/svg">
<path d="M22 3.2646C20.3162 3.69988 19.0534 4.43986 18.2115 5.48454C17.3696 6.52921 16.9265 8.09622 16.8822 10.1856H22V19H12.8278V12.3402C12.8278 10.512 12.9829 8.90149 13.2931 7.50859C13.6032 6.11569 14.1128 4.94044 14.8218 3.98282C15.5307 2.98167 16.4612 2.15464 17.6133 1.50172C18.8097 0.848795 20.2719 0.348223 22 0V3.2646ZM9.17221 3.2646C7.48842 3.69988 6.22558 4.43986 5.38369 5.48454C4.54179 6.52921 4.09869 8.09622 4.05438 10.1856H9.17221V19H0V12.3402C0 10.512 0.155086 8.90149 0.465257 7.50859C0.775428 6.11569 1.28499 4.94044 1.99396 3.98282C2.70292 2.98167 3.63343 2.15464 4.7855 1.50172C5.98187 0.848795 7.44411 0.348223 9.17221 0V3.2646Z" fill="#44AE83"/>
</svg>
