<svg width="21" height="21" viewBox="0 0 21 21" fill="none" xmlns="http://www.w3.org/2000/svg">
<path d="M18.9 18.9L14.8466 14.8466M14.8466 14.8466C15.5399 14.1532 16.0899 13.3301 16.4652 12.4242C16.8404 11.5183 17.0336 10.5473 17.0336 9.56678C17.0336 8.58623 16.8404 7.61528 16.4652 6.70937C16.0899 5.80346 15.5399 4.98033 14.8466 4.28697C14.1532 3.59362 13.3301 3.04362 12.4242 2.66838C11.5183 2.29314 10.5473 2.10001 9.56678 2.10001C8.58623 2.10001 7.61528 2.29314 6.70937 2.66838C5.80346 3.04362 4.98033 3.59362 4.28697 4.28697C2.88668 5.68727 2.10001 7.58647 2.10001 9.56678C2.10001 11.5471 2.88668 13.4463 4.28697 14.8466C5.68726 16.2469 7.58647 17.0336 9.56678 17.0336C11.5471 17.0336 13.4463 16.2469 14.8466 14.8466Z" stroke="#415283" stroke-width="2.5" stroke-linecap="round" stroke-linejoin="round"/>
</svg>
