<svg width="553" height="101" viewBox="0 0 553 101" fill="none" xmlns="http://www.w3.org/2000/svg">
<path d="M128.766 44.7488C128.531 43.0519 127.918 41.8735 126.928 41.2136C125.938 40.5066 124.383 40.1531 122.262 40.1531C120.518 40.1531 119.174 40.3888 118.232 40.8601C117.289 41.2843 116.818 42.0149 116.818 43.0519C116.818 44.0889 117.289 44.8902 118.232 45.4558C119.174 45.9743 120.588 46.4928 122.474 47.0113C124.454 47.5769 126.339 48.0954 128.13 48.5668C129.921 48.991 131.5 49.4624 132.867 49.9808C134.705 50.735 136.12 51.772 137.109 53.0918C138.099 54.3644 138.594 56.132 138.594 58.3945C138.594 62.024 137.298 64.8521 134.705 66.8789C132.16 68.9057 128.389 69.9191 123.393 69.9191C118.02 69.9191 113.895 68.7879 111.02 66.5254C108.192 64.2629 106.731 61.3641 106.636 57.8289H116.111C116.111 59.4786 116.747 60.7513 118.02 61.6469C119.292 62.5424 121.06 62.9902 123.322 62.9902C124.972 62.9902 126.41 62.731 127.635 62.2125C128.861 61.6469 129.473 60.7042 129.473 59.3844C129.473 58.1588 128.908 57.2868 127.777 56.7683C126.692 56.2499 125.396 55.8021 123.888 55.425C120.966 54.718 118.609 54.0816 116.818 53.516C115.026 52.9504 113.518 52.2669 112.293 51.4656C110.643 50.4286 109.488 49.2502 108.828 47.9304C108.215 46.6107 107.909 45.173 107.909 43.6176C107.909 42.1564 108.168 40.7894 108.687 39.5168C109.205 38.2441 110.054 37.16 111.232 36.2644C112.41 35.3217 113.919 34.5911 115.757 34.0726C117.642 33.5541 119.905 33.2949 122.545 33.2949C127.588 33.2949 131.288 34.2612 133.645 36.1937C136.049 38.1263 137.369 40.978 137.604 44.7488H128.766ZM160.499 46.0922H169.055V55.9906C169.055 57.8289 168.772 59.5965 168.206 61.2934C167.688 62.9431 166.839 64.4279 165.661 65.7477C164.53 67.0203 163.068 68.0337 161.277 68.7879C159.533 69.5421 157.436 69.9191 154.985 69.9191C152.439 69.9191 150.271 69.5421 148.48 68.7879C146.689 68.0337 145.204 67.0203 144.026 65.7477C142.894 64.475 142.069 62.9902 141.551 61.2934C141.033 59.5965 140.773 57.8053 140.773 55.9199V24.8105H149.823V34.214H169.055V40.7187H149.823V55.0008C149.823 57.2161 150.224 58.9366 151.025 60.1621C151.874 61.3405 153.241 61.9297 155.126 61.9297C156.964 61.9297 158.308 61.3405 159.156 60.1621C160.052 58.9837 160.499 57.3104 160.499 55.1422V46.0922ZM189.921 62.2125C195.53 62.2125 198.335 58.6773 198.335 51.607C198.335 44.5838 195.53 41.0722 189.921 41.0722C184.312 41.0722 181.507 44.5838 181.507 51.607C181.507 58.6773 184.312 62.2125 189.921 62.2125ZM189.921 69.9191C187.093 69.9191 184.571 69.4714 182.356 68.5758C180.14 67.6802 178.255 66.4311 176.699 64.8285C175.191 63.2259 174.036 61.2934 173.235 59.0308C172.434 56.7683 172.033 54.2937 172.033 51.607C172.033 48.8732 172.434 46.375 173.235 44.1125C174.083 41.85 175.285 39.9174 176.841 38.3148C178.396 36.7122 180.258 35.4867 182.426 34.6382C184.642 33.7427 187.14 33.2949 189.921 33.2949C192.655 33.2949 195.106 33.7427 197.274 34.6382C199.442 35.4867 201.28 36.7122 202.789 38.3148C204.344 39.8703 205.523 41.7793 206.324 44.0418C207.172 46.3043 207.597 48.826 207.597 51.607C207.597 54.388 207.172 56.9098 206.324 59.1723C205.523 61.3876 204.344 63.2966 202.789 64.8992C201.28 66.5018 199.419 67.7509 197.203 68.6465C195.035 69.4949 192.608 69.9191 189.921 69.9191ZM227.327 62.0711C232.606 62.0711 235.246 58.4888 235.246 51.3242C235.246 48.2133 234.515 45.6915 233.054 43.759C231.593 41.7793 229.708 40.7894 227.398 40.7894C225.183 40.7894 223.321 41.7086 221.812 43.5468C220.351 45.3851 219.621 47.789 219.621 50.7586C219.621 58.3002 222.189 62.0711 227.327 62.0711ZM210.924 85.4738V34.214H219.762L219.833 38.4562C221.954 35.0153 225.183 33.2949 229.519 33.2949C231.687 33.2949 233.691 33.7191 235.529 34.5675C237.414 35.416 239.017 36.6415 240.337 38.2441C241.656 39.8467 242.693 41.8028 243.448 44.1125C244.202 46.4221 244.579 49.0381 244.579 51.9605C244.579 54.6001 244.249 57.0276 243.589 59.243C242.976 61.4112 242.057 63.2966 240.832 64.8992C239.606 66.5018 238.098 67.7509 236.307 68.6465C234.563 69.4949 232.559 69.9191 230.297 69.9191C226.007 69.9191 222.567 68.1044 219.974 64.475V85.4738H210.924ZM247.014 50.8293V43.6883H264.548V50.8293H247.014ZM290.021 69V47.9304C290.021 45.2437 289.573 43.429 288.677 42.4863C287.782 41.5436 286.25 41.0722 284.081 41.0722C279.321 41.0722 276.94 43.7354 276.94 49.0617V69H267.749V34.214H276.516V39.3047C277.6 37.325 279.038 35.8402 280.829 34.8504C282.62 33.8134 284.93 33.2949 287.758 33.2949C289.408 33.2949 290.94 33.5541 292.354 34.0726C293.768 34.544 294.97 35.2746 295.96 36.2644C296.997 37.2543 297.798 38.4798 298.364 39.941C298.976 41.3551 299.283 43.0048 299.283 44.8902V69H290.021ZM324.448 51.9605C323.977 52.4319 323.293 52.809 322.398 53.0918C321.502 53.3746 320.206 53.681 318.509 54.0109C315.869 54.5294 314.055 55.1893 313.065 55.9906C312.075 56.7919 311.58 57.9467 311.58 59.4551C311.58 62.0475 313.065 63.3437 316.034 63.3437C317.213 63.3437 318.297 63.1552 319.287 62.7781C320.324 62.3539 321.196 61.8118 321.903 61.1519C322.657 60.4449 323.246 59.6436 323.67 58.748C324.142 57.8053 324.377 56.8155 324.377 55.7785L324.448 51.9605ZM325.084 69C324.802 68.1044 324.613 67.0674 324.519 65.8891C323.435 67.1146 321.997 68.1044 320.206 68.8586C318.415 69.5656 316.341 69.9191 313.984 69.9191C309.977 69.9191 307.031 69.0471 305.146 67.3031C303.308 65.512 302.389 63.2023 302.389 60.3742C302.389 57.876 302.789 55.8963 303.591 54.4351C304.392 52.9268 305.5 51.7484 306.914 50.9C308.328 50.0515 310.001 49.4388 311.934 49.0617C313.913 48.6375 316.058 48.2604 318.368 47.9304C320.677 47.6005 322.233 47.1763 323.034 46.6578C323.835 46.0922 324.236 45.1966 324.236 43.9711C324.236 42.8398 323.694 41.9678 322.61 41.355C321.573 40.6952 320.159 40.3652 318.368 40.3652C316.246 40.3652 314.715 40.8366 313.772 41.7793C312.876 42.722 312.311 43.9711 312.075 45.5265H303.52C303.567 43.7354 303.85 42.0857 304.368 40.5773C304.934 39.069 305.806 37.7728 306.984 36.6886C308.21 35.6045 309.789 34.7797 311.721 34.214C313.654 33.6013 316.011 33.2949 318.792 33.2949C321.526 33.2949 323.835 33.6013 325.721 34.214C327.653 34.8268 329.185 35.7224 330.316 36.9007C331.495 38.032 332.343 39.4696 332.862 41.2136C333.38 42.9105 333.639 44.8431 333.639 47.0113V69H325.084ZM337.693 69V34.214H346.319V38.3855C347.073 37.2071 347.85 36.288 348.652 35.6281C349.5 34.9682 350.349 34.4733 351.197 34.1433C352.093 33.7662 352.988 33.5306 353.884 33.4363C354.779 33.342 355.698 33.2949 356.641 33.2949H357.843V42.6984C356.995 42.557 356.146 42.4863 355.298 42.4863C349.689 42.4863 346.884 45.2909 346.884 50.9V69H337.693ZM389.59 56.4148C389.354 58.4417 388.765 60.2799 387.822 61.9297C386.927 63.5794 385.772 64.9935 384.358 66.1719C382.944 67.3503 381.318 68.2694 379.479 68.9293C377.688 69.5892 375.732 69.9191 373.611 69.9191C371.254 69.9191 369.086 69.5421 367.106 68.7879C365.174 67.9866 363.5 66.8082 362.086 65.2527C360.672 63.6501 359.565 61.694 358.763 59.3844C358.009 57.0276 357.632 54.2937 357.632 51.1828C357.632 48.0719 358.009 45.3851 358.763 43.1226C359.565 40.8601 360.672 39.0218 362.086 37.6078C363.5 36.1466 365.197 35.0625 367.177 34.3554C369.204 33.6484 371.443 33.2949 373.894 33.2949C376.156 33.2949 378.207 33.6013 380.045 34.214C381.93 34.8268 383.557 35.7224 384.924 36.9007C386.338 38.0791 387.445 39.4932 388.247 41.1429C389.048 42.7927 389.519 44.631 389.661 46.6578H380.399C380.163 44.8666 379.432 43.4761 378.207 42.4863C377.028 41.4493 375.567 40.9308 373.823 40.9308C372.833 40.9308 371.914 41.0958 371.066 41.4258C370.217 41.7557 369.463 42.3213 368.803 43.1226C368.19 43.8768 367.696 44.9138 367.318 46.2336C366.941 47.5062 366.753 49.0853 366.753 50.9707C366.753 54.7887 367.436 57.6168 368.803 59.4551C370.17 61.2934 371.749 62.2125 373.54 62.2125C375.331 62.2125 376.863 61.7176 378.136 60.7277C379.409 59.7379 380.139 58.3002 380.328 56.4148H389.59ZM409.418 62.2125C415.027 62.2125 417.832 58.6773 417.832 51.607C417.832 44.5838 415.027 41.0722 409.418 41.0722C403.809 41.0722 401.005 44.5838 401.005 51.607C401.005 58.6773 403.809 62.2125 409.418 62.2125ZM409.418 69.9191C406.59 69.9191 404.068 69.4714 401.853 68.5758C399.638 67.6802 397.752 66.4311 396.197 64.8285C394.689 63.2259 393.534 61.2934 392.732 59.0308C391.931 56.7683 391.53 54.2937 391.53 51.607C391.53 48.8732 391.931 46.375 392.732 44.1125C393.581 41.85 394.783 39.9174 396.338 38.3148C397.894 36.7122 399.756 35.4867 401.924 34.6382C404.139 33.7427 406.637 33.2949 409.418 33.2949C412.152 33.2949 414.603 33.7427 416.771 34.6382C418.94 35.4867 420.778 36.7122 422.286 38.3148C423.842 39.8703 425.02 41.7793 425.821 44.0418C426.67 46.3043 427.094 48.826 427.094 51.607C427.094 54.388 426.67 56.9098 425.821 59.1723C425.02 61.3876 423.842 63.2966 422.286 64.8992C420.778 66.5018 418.916 67.7509 416.701 68.6465C414.533 69.4949 412.105 69.9191 409.418 69.9191ZM430.422 69V21.4875H439.613V69H430.422ZM460.581 62.2125C466.191 62.2125 468.995 58.6773 468.995 51.607C468.995 44.5838 466.191 41.0722 460.581 41.0722C454.972 41.0722 452.168 44.5838 452.168 51.607C452.168 58.6773 454.972 62.2125 460.581 62.2125ZM460.581 69.9191C457.753 69.9191 455.232 69.4714 453.016 68.5758C450.801 67.6802 448.915 66.4311 447.36 64.8285C445.852 63.2259 444.697 61.2934 443.896 59.0308C443.094 56.7683 442.694 54.2937 442.694 51.607C442.694 48.8732 443.094 46.375 443.896 44.1125C444.744 41.85 445.946 39.9174 447.501 38.3148C449.057 36.7122 450.919 35.4867 453.087 34.6382C455.302 33.7427 457.8 33.2949 460.581 33.2949C463.315 33.2949 465.766 33.7427 467.935 34.6382C470.103 35.4867 471.941 36.7122 473.449 38.3148C475.005 39.8703 476.183 41.7793 476.985 44.0418C477.833 46.3043 478.257 48.826 478.257 51.607C478.257 54.388 477.833 56.9098 476.985 59.1723C476.183 61.3876 475.005 63.2966 473.449 64.8992C471.941 66.5018 470.079 67.7509 467.864 68.6465C465.696 69.4949 463.268 69.9191 460.581 69.9191ZM498.271 62.0711C500.533 62.0711 502.395 61.2226 503.856 59.5258C505.365 57.7818 506.119 55.425 506.119 52.4555C506.119 45.008 503.503 41.2843 498.271 41.2843C493.039 41.2843 490.423 44.8195 490.423 51.8898C490.423 55.0008 491.153 57.4754 492.614 59.3137C494.123 61.1519 496.008 62.0711 498.271 62.0711ZM505.836 64.3336C505.176 65.8891 503.974 67.1146 502.23 68.0102C500.533 68.8586 498.554 69.2828 496.291 69.2828C493.416 69.2828 490.988 68.7879 489.009 67.798C487.076 66.7611 485.497 65.4177 484.271 63.768C483.093 62.1182 482.221 60.2092 481.655 58.041C481.137 55.8728 480.878 53.6574 480.878 51.3949C480.878 48.7082 481.278 46.2571 482.08 44.0418C482.881 41.7793 483.965 39.8703 485.332 38.3148C486.699 36.7122 488.302 35.4867 490.14 34.6382C491.978 33.7427 493.958 33.2949 496.079 33.2949C500.415 33.2949 503.668 35.0389 505.836 38.5269V34.214H515.027V69.3535C515.027 71.9931 514.58 74.3027 513.684 76.2824C512.788 78.3093 511.563 79.9826 510.007 81.3024C508.452 82.6693 506.614 83.7063 504.493 84.4133C502.371 85.1203 500.109 85.4738 497.705 85.4738C495.301 85.4738 493.062 85.1203 490.988 84.4133C488.914 83.7534 487.123 82.7871 485.615 81.5145C484.154 80.2889 482.999 78.7806 482.15 76.9895C481.302 75.1983 480.878 73.1715 480.878 70.909H489.433C489.433 73.0301 490.116 74.6563 491.483 75.7875C492.897 76.9659 494.759 77.5551 497.069 77.5551C499.52 77.5551 501.594 76.8716 503.291 75.5047C504.988 74.1849 505.836 72.3702 505.836 70.0605V64.3336ZM541.207 64.4043C540.547 65.9598 539.345 67.1853 537.601 68.0809C535.904 68.9293 533.972 69.3535 531.803 69.3535C529.965 69.3535 528.268 69.0707 526.713 68.5051C525.157 67.8923 523.814 67.0439 522.683 65.9598C521.551 64.8285 520.656 63.5087 519.996 62.0004C519.383 60.4449 519.077 58.7009 519.077 56.7683V34.214H528.268V55.425C528.268 59.7614 530.224 61.9297 534.137 61.9297C536.258 61.9297 537.955 61.3169 539.227 60.0914C540.547 58.8659 541.207 57.3104 541.207 55.425V34.214H550.398V69.9191C550.398 72.3702 549.974 74.562 549.126 76.4945C548.324 78.4271 547.193 80.0533 545.732 81.3731C544.318 82.6929 542.621 83.7063 540.641 84.4133C538.709 85.1203 536.635 85.4738 534.419 85.4738C529.282 85.4738 525.44 84.1776 522.895 81.5852C520.349 78.9927 519.077 75.434 519.077 70.909H527.632C527.632 72.9829 528.221 74.6091 529.399 75.7875C530.625 76.9659 532.44 77.5551 534.844 77.5551C535.692 77.5551 536.493 77.3665 537.248 76.9895C538.002 76.6595 538.662 76.1646 539.227 75.5047C539.84 74.8919 540.311 74.1142 540.641 73.1715C541.018 72.2288 541.207 71.1918 541.207 70.0605V64.4043Z" fill="white"/>
<rect x="47.9772" y="10.1001" width="17.6758" height="47.9772" fill="white"/>
<rect x="80.8038" y="25.251" width="17.6758" height="47.9772" transform="rotate(90 80.8038 25.251)" fill="white"/>
<rect x="15.1506" y="42.9268" width="17.6758" height="47.9772" fill="#44AE83"/>
<rect x="47.9772" y="58.0776" width="17.6758" height="47.9772" transform="rotate(90 47.9772 58.0776)" fill="#44AE83"/>
</svg>
