<svg width="219" height="40" viewBox="0 0 219 40" fill="none" xmlns="http://www.w3.org/2000/svg">
<path d="M51.016 17.396C50.9227 16.724 50.68 16.2573 50.288 15.996C49.896 15.716 49.28 15.576 48.44 15.576C47.7493 15.576 47.2173 15.6693 46.844 15.856C46.4707 16.024 46.284 16.3133 46.284 16.724C46.284 17.1347 46.4707 17.452 46.844 17.676C47.2173 17.8813 47.7773 18.0867 48.524 18.292C49.308 18.516 50.0547 18.7213 50.764 18.908C51.4733 19.076 52.0987 19.2627 52.64 19.468C53.368 19.7667 53.928 20.1773 54.32 20.7C54.712 21.204 54.908 21.904 54.908 22.8C54.908 24.2373 54.3947 25.3573 53.368 26.16C52.36 26.9627 50.8667 27.364 48.888 27.364C46.76 27.364 45.1267 26.916 43.988 26.02C42.868 25.124 42.2893 23.976 42.252 22.576H46.004C46.004 23.2293 46.256 23.7333 46.76 24.088C47.264 24.4427 47.964 24.62 48.86 24.62C49.5133 24.62 50.0827 24.5173 50.568 24.312C51.0533 24.088 51.296 23.7147 51.296 23.192C51.296 22.7067 51.072 22.3613 50.624 22.156C50.1947 21.9507 49.6813 21.7733 49.084 21.624C47.9267 21.344 46.9933 21.092 46.284 20.868C45.5747 20.644 44.9773 20.3733 44.492 20.056C43.8387 19.6453 43.3813 19.1787 43.12 18.656C42.8773 18.1333 42.756 17.564 42.756 16.948C42.756 16.3693 42.8587 15.828 43.064 15.324C43.2693 14.82 43.6053 14.3907 44.072 14.036C44.5387 13.6627 45.136 13.3733 45.864 13.168C46.6107 12.9627 47.5067 12.86 48.552 12.86C50.5493 12.86 52.0147 13.2427 52.948 14.008C53.9 14.7733 54.4227 15.9027 54.516 17.396H51.016ZM63.583 17.928H66.971V21.848C66.971 22.576 66.859 23.276 66.635 23.948C66.4296 24.6013 66.0936 25.1893 65.627 25.712C65.179 26.216 64.6003 26.6173 63.891 26.916C63.2003 27.2147 62.3696 27.364 61.399 27.364C60.391 27.364 59.5323 27.2147 58.823 26.916C58.1136 26.6173 57.5256 26.216 57.059 25.712C56.611 25.208 56.2843 24.62 56.079 23.948C55.8736 23.276 55.771 22.5667 55.771 21.82V9.5H59.355V13.224H66.971V15.8H59.355V21.456C59.355 22.3333 59.5136 23.0147 59.831 23.5C60.167 23.9667 60.7083 24.2 61.455 24.2C62.183 24.2 62.715 23.9667 63.051 23.5C63.4056 23.0333 63.583 22.3707 63.583 21.512V17.928ZM75.2345 24.312C77.4558 24.312 78.5665 22.912 78.5665 20.112C78.5665 17.3307 77.4558 15.94 75.2345 15.94C73.0131 15.94 71.9025 17.3307 71.9025 20.112C71.9025 22.912 73.0131 24.312 75.2345 24.312ZM75.2345 27.364C74.1145 27.364 73.1158 27.1867 72.2385 26.832C71.3611 26.4773 70.6145 25.9827 69.9985 25.348C69.4011 24.7133 68.9438 23.948 68.6265 23.052C68.3091 22.156 68.1505 21.176 68.1505 20.112C68.1505 19.0293 68.3091 18.04 68.6265 17.144C68.9625 16.248 69.4385 15.4827 70.0545 14.848C70.6705 14.2133 71.4078 13.728 72.2665 13.392C73.1438 13.0373 74.1331 12.86 75.2345 12.86C76.3171 12.86 77.2878 13.0373 78.1465 13.392C79.0051 13.728 79.7331 14.2133 80.3305 14.848C80.9465 15.464 81.4131 16.22 81.7305 17.116C82.0665 18.012 82.2345 19.0107 82.2345 20.112C82.2345 21.2133 82.0665 22.212 81.7305 23.108C81.4131 23.9853 80.9465 24.7413 80.3305 25.376C79.7331 26.0107 78.9958 26.5053 78.1185 26.86C77.2598 27.196 76.2985 27.364 75.2345 27.364ZM90.0482 24.256C92.1389 24.256 93.1842 22.8373 93.1842 20C93.1842 18.768 92.8949 17.7693 92.3162 17.004C91.7376 16.22 90.9909 15.828 90.0762 15.828C89.1989 15.828 88.4616 16.192 87.8642 16.92C87.2856 17.648 86.9962 18.6 86.9962 19.776C86.9962 22.7627 88.0136 24.256 90.0482 24.256ZM83.5522 33.524V13.224H87.0522L87.0802 14.904C87.9202 13.5413 89.1989 12.86 90.9162 12.86C91.7749 12.86 92.5682 13.028 93.2962 13.364C94.0429 13.7 94.6776 14.1853 95.2002 14.82C95.7229 15.4547 96.1336 16.2293 96.4322 17.144C96.7309 18.0587 96.8802 19.0947 96.8802 20.252C96.8802 21.2973 96.7496 22.2587 96.4882 23.136C96.2456 23.9947 95.8816 24.7413 95.3962 25.376C94.9109 26.0107 94.3136 26.5053 93.6042 26.86C92.9136 27.196 92.1202 27.364 91.2242 27.364C89.5256 27.364 88.1629 26.6453 87.1362 25.208V33.524H83.5522ZM97.8445 19.804V16.976H104.788V19.804H97.8445ZM114.876 27V18.656C114.876 17.592 114.699 16.8733 114.344 16.5C113.989 16.1267 113.383 15.94 112.524 15.94C110.639 15.94 109.696 16.9947 109.696 19.104V27H106.056V13.224H109.528V15.24C109.957 14.456 110.527 13.868 111.236 13.476C111.945 13.0653 112.86 12.86 113.98 12.86C114.633 12.86 115.24 12.9627 115.8 13.168C116.36 13.3547 116.836 13.644 117.228 14.036C117.639 14.428 117.956 14.9133 118.18 15.492C118.423 16.052 118.544 16.7053 118.544 17.452V27H114.876ZM128.51 20.252C128.323 20.4387 128.053 20.588 127.698 20.7C127.343 20.812 126.83 20.9333 126.158 21.064C125.113 21.2693 124.394 21.5307 124.002 21.848C123.61 22.1653 123.414 22.6227 123.414 23.22C123.414 24.2467 124.002 24.76 125.178 24.76C125.645 24.76 126.074 24.6853 126.466 24.536C126.877 24.368 127.222 24.1533 127.502 23.892C127.801 23.612 128.034 23.2947 128.202 22.94C128.389 22.5667 128.482 22.1747 128.482 21.764L128.51 20.252ZM128.762 27C128.65 26.6453 128.575 26.2347 128.538 25.768C128.109 26.2533 127.539 26.6453 126.83 26.944C126.121 27.224 125.299 27.364 124.366 27.364C122.779 27.364 121.613 27.0187 120.866 26.328C120.138 25.6187 119.774 24.704 119.774 23.584C119.774 22.5947 119.933 21.8107 120.25 21.232C120.567 20.6347 121.006 20.168 121.566 19.832C122.126 19.496 122.789 19.2533 123.554 19.104C124.338 18.936 125.187 18.7867 126.102 18.656C127.017 18.5253 127.633 18.3573 127.95 18.152C128.267 17.928 128.426 17.5733 128.426 17.088C128.426 16.64 128.211 16.2947 127.782 16.052C127.371 15.7907 126.811 15.66 126.102 15.66C125.262 15.66 124.655 15.8467 124.282 16.22C123.927 16.5933 123.703 17.088 123.61 17.704H120.222C120.241 16.9947 120.353 16.3413 120.558 15.744C120.782 15.1467 121.127 14.6333 121.594 14.204C122.079 13.7747 122.705 13.448 123.47 13.224C124.235 12.9813 125.169 12.86 126.27 12.86C127.353 12.86 128.267 12.9813 129.014 13.224C129.779 13.4667 130.386 13.8213 130.834 14.288C131.301 14.736 131.637 15.3053 131.842 15.996C132.047 16.668 132.15 17.4333 132.15 18.292V27H128.762ZM133.755 27V13.224H137.171V14.876C137.47 14.4093 137.778 14.0453 138.095 13.784C138.431 13.5227 138.767 13.3267 139.103 13.196C139.458 13.0467 139.813 12.9533 140.167 12.916C140.522 12.8787 140.886 12.86 141.259 12.86H141.735V16.584C141.399 16.528 141.063 16.5 140.727 16.5C138.506 16.5 137.395 17.6107 137.395 19.832V27H133.755ZM154.308 22.016C154.214 22.8187 153.981 23.5467 153.608 24.2C153.253 24.8533 152.796 25.4133 152.236 25.88C151.676 26.3467 151.032 26.7107 150.304 26.972C149.594 27.2333 148.82 27.364 147.98 27.364C147.046 27.364 146.188 27.2147 145.404 26.916C144.638 26.5987 143.976 26.132 143.416 25.516C142.856 24.8813 142.417 24.1067 142.1 23.192C141.801 22.2587 141.652 21.176 141.652 19.944C141.652 18.712 141.801 17.648 142.1 16.752C142.417 15.856 142.856 15.128 143.416 14.568C143.976 13.9893 144.648 13.56 145.432 13.28C146.234 13 147.121 12.86 148.092 12.86C148.988 12.86 149.8 12.9813 150.528 13.224C151.274 13.4667 151.918 13.8213 152.46 14.288C153.02 14.7547 153.458 15.3147 153.776 15.968C154.093 16.6213 154.28 17.3493 154.336 18.152H150.668C150.574 17.4427 150.285 16.892 149.8 16.5C149.333 16.0893 148.754 15.884 148.064 15.884C147.672 15.884 147.308 15.9493 146.972 16.08C146.636 16.2107 146.337 16.4347 146.076 16.752C145.833 17.0507 145.637 17.4613 145.488 17.984C145.338 18.488 145.264 19.1133 145.264 19.86C145.264 21.372 145.534 22.492 146.076 23.22C146.617 23.948 147.242 24.312 147.952 24.312C148.661 24.312 149.268 24.116 149.772 23.724C150.276 23.332 150.565 22.7627 150.64 22.016H154.308ZM162.16 24.312C164.382 24.312 165.492 22.912 165.492 20.112C165.492 17.3307 164.382 15.94 162.16 15.94C159.939 15.94 158.828 17.3307 158.828 20.112C158.828 22.912 159.939 24.312 162.16 24.312ZM162.16 27.364C161.04 27.364 160.042 27.1867 159.164 26.832C158.287 26.4773 157.54 25.9827 156.924 25.348C156.327 24.7133 155.87 23.948 155.552 23.052C155.235 22.156 155.076 21.176 155.076 20.112C155.076 19.0293 155.235 18.04 155.552 17.144C155.888 16.248 156.364 15.4827 156.98 14.848C157.596 14.2133 158.334 13.728 159.192 13.392C160.07 13.0373 161.059 12.86 162.16 12.86C163.243 12.86 164.214 13.0373 165.072 13.392C165.931 13.728 166.659 14.2133 167.256 14.848C167.872 15.464 168.339 16.22 168.656 17.116C168.992 18.012 169.16 19.0107 169.16 20.112C169.16 21.2133 168.992 22.212 168.656 23.108C168.339 23.9853 167.872 24.7413 167.256 25.376C166.659 26.0107 165.922 26.5053 165.044 26.86C164.186 27.196 163.224 27.364 162.16 27.364ZM170.478 27V8.184H174.118V27H170.478ZM182.422 24.312C184.643 24.312 185.754 22.912 185.754 20.112C185.754 17.3307 184.643 15.94 182.422 15.94C180.201 15.94 179.09 17.3307 179.09 20.112C179.09 22.912 180.201 24.312 182.422 24.312ZM182.422 27.364C181.302 27.364 180.303 27.1867 179.426 26.832C178.549 26.4773 177.802 25.9827 177.186 25.348C176.589 24.7133 176.131 23.948 175.814 23.052C175.497 22.156 175.338 21.176 175.338 20.112C175.338 19.0293 175.497 18.04 175.814 17.144C176.15 16.248 176.626 15.4827 177.242 14.848C177.858 14.2133 178.595 13.728 179.454 13.392C180.331 13.0373 181.321 12.86 182.422 12.86C183.505 12.86 184.475 13.0373 185.334 13.392C186.193 13.728 186.921 14.2133 187.518 14.848C188.134 15.464 188.601 16.22 188.918 17.116C189.254 18.012 189.422 19.0107 189.422 20.112C189.422 21.2133 189.254 22.212 188.918 23.108C188.601 23.9853 188.134 24.7413 187.518 25.376C186.921 26.0107 186.183 26.5053 185.306 26.86C184.447 27.196 183.486 27.364 182.422 27.364ZM197.348 24.256C198.244 24.256 198.981 23.92 199.56 23.248C200.157 22.5573 200.456 21.624 200.456 20.448C200.456 17.4987 199.42 16.024 197.348 16.024C195.276 16.024 194.24 17.424 194.24 20.224C194.24 21.456 194.529 22.436 195.108 23.164C195.705 23.892 196.452 24.256 197.348 24.256ZM200.344 25.152C200.082 25.768 199.606 26.2533 198.916 26.608C198.244 26.944 197.46 27.112 196.564 27.112C195.425 27.112 194.464 26.916 193.68 26.524C192.914 26.1133 192.289 25.5813 191.804 24.928C191.337 24.2747 190.992 23.5187 190.768 22.66C190.562 21.8013 190.46 20.924 190.46 20.028C190.46 18.964 190.618 17.9933 190.936 17.116C191.253 16.22 191.682 15.464 192.224 14.848C192.765 14.2133 193.4 13.728 194.128 13.392C194.856 13.0373 195.64 12.86 196.48 12.86C198.197 12.86 199.485 13.5507 200.344 14.932V13.224H203.984V27.14C203.984 28.1853 203.806 29.1 203.452 29.884C203.097 30.6867 202.612 31.3493 201.996 31.872C201.38 32.4133 200.652 32.824 199.812 33.104C198.972 33.384 198.076 33.524 197.124 33.524C196.172 33.524 195.285 33.384 194.464 33.104C193.642 32.8427 192.933 32.46 192.336 31.956C191.757 31.4707 191.3 30.8733 190.964 30.164C190.628 29.4547 190.46 28.652 190.46 27.756H193.848C193.848 28.596 194.118 29.24 194.66 29.688C195.22 30.1547 195.957 30.388 196.872 30.388C197.842 30.388 198.664 30.1173 199.336 29.576C200.008 29.0533 200.344 28.3347 200.344 27.42V25.152ZM214.351 25.18C214.09 25.796 213.614 26.2813 212.923 26.636C212.251 26.972 211.486 27.14 210.627 27.14C209.899 27.14 209.227 27.028 208.611 26.804C207.995 26.5613 207.463 26.2253 207.015 25.796C206.567 25.348 206.213 24.8253 205.951 24.228C205.709 23.612 205.587 22.9213 205.587 22.156V13.224H209.227V21.624C209.227 23.3413 210.002 24.2 211.551 24.2C212.391 24.2 213.063 23.9573 213.567 23.472C214.09 22.9867 214.351 22.3707 214.351 21.624V13.224H217.991V27.364C217.991 28.3347 217.823 29.2027 217.487 29.968C217.17 30.7333 216.722 31.3773 216.143 31.9C215.583 32.4227 214.911 32.824 214.127 33.104C213.362 33.384 212.541 33.524 211.663 33.524C209.629 33.524 208.107 33.0107 207.099 31.984C206.091 30.9573 205.587 29.548 205.587 27.756H208.975C208.975 28.5773 209.209 29.2213 209.675 29.688C210.161 30.1547 210.879 30.388 211.831 30.388C212.167 30.388 212.485 30.3133 212.783 30.164C213.082 30.0333 213.343 29.8373 213.567 29.576C213.81 29.3333 213.997 29.0253 214.127 28.652C214.277 28.2787 214.351 27.868 214.351 27.42V25.18Z" fill="#415283"/>
<rect x="19" y="4" width="7" height="19" fill="#415283"/>
<rect x="32" y="10" width="7" height="19" transform="rotate(90 32 10)" fill="#415283"/>
<rect x="6" y="17" width="7" height="19" fill="#44AE83"/>
<rect x="19" y="23" width="7" height="19" transform="rotate(90 19 23)" fill="#44AE83"/>
</svg>
